<svg xmlns="http://www.w3.org/2000/svg" height="20px" viewBox="0 -960 960 960" width="20px" fill="#6c757d"><path d="M504-264Zm-312 72v-96q0-23 12.5-43.5T239-366q55-32 116.36-49T480-432q37.68 0 74.34 6Q591-420 626-409l-58 58q-22-5-43.62-7-21.62-2-44.38-2-55 0-107 14t-98 42q-5 4-8 7.72-3 3.73-3 8.28v24h240v72H192Zm384 48v-113l210-209q7.26-7.41 16.13-10.71Q811-480 819.76-480q9.55 0 18.31 3.5Q846.83-473 854-466l44 45q6.59 7.26 10.29 16.13Q912-396 912-387.24t-3.29 17.92q-3.3 9.15-10.71 16.32L689-144H576Zm288-243-45-45 45 45ZM624-192h45l115-115-22-23-22-22-116 115v45Zm138-138-22-22 44 45-22-23ZM378-522q-42-42-42-102t42-102q42-42 102-42t102 42q42 42 42 102t-42 102q-42 42-102 42t-102-42Zm153-51.21q21-21.21 21-51T530.79-675q-21.21-21-51-21T429-674.79q-21 21.21-21 51T429.21-573q21.21 21 51 21T531-573.21ZM480-624Z"/></svg>